<svg xmlns="http://www.w3.org/2000/svg" width="89" height="78" viewBox="0 0 89 78" fill="none">
<g filter="url(#filter0_i_16_2148)">
<path d="M88.5918 47.5252C88.5918 32.867 86.593 22.3176 82.5953 15.8769C78.9706 10.3444 73.2155 5.3855 65.3301 1.00014C63.0095 -0.290431 60.1191 0.416581 58.519 2.53564L52.8779 10.0062C50.8178 12.7345 51.7119 16.6336 54.6203 18.4304C59.3023 21.3228 62.2977 23.9141 63.6063 26.2042C64.462 27.7934 65.0822 29.6181 65.4669 31.6783C66.0293 34.6898 63.4548 37.1978 60.3913 37.1978H54.162C51.0984 37.1978 48.615 39.6813 48.615 42.7448V71.6277C48.615 74.6912 51.0984 77.1747 54.162 77.1747H83.0448C86.1083 77.1747 88.5918 74.6912 88.5918 71.6277V47.5252ZM40.2865 47.5252C40.2865 32.867 38.2876 22.3176 34.2899 15.8769C30.8497 10.3342 25.1067 5.36722 17.0611 0.975901C14.7221 -0.300746 11.8271 0.440987 10.2493 2.58846L4.74132 10.0855C2.75011 12.7957 3.62954 16.6146 6.47053 18.4144C11.0465 21.3133 13.9899 23.9099 15.3009 26.2042C16.2802 27.7955 16.9896 29.623 17.4292 31.6866C18.0674 34.6829 15.4826 37.1978 12.4191 37.1978H6.18978C3.12626 37.1978 0.642784 39.6813 0.642784 42.7448V71.6277C0.642784 74.6912 3.12627 77.1747 6.18978 77.1747H34.7395C37.803 77.1747 40.2865 74.6912 40.2865 71.6277V47.5252Z" fill="url(#paint0_linear_16_2148)"/>
</g>
<path d="M64.2083 25.8602L64.2126 25.8678L64.2168 25.8755C65.1114 27.537 65.7527 29.4315 66.1485 31.551C66.8081 35.0833 63.7873 37.8912 60.3913 37.8912H54.162C51.4814 37.8912 49.3083 40.0643 49.3083 42.7448V71.6277C49.3083 74.3082 51.4814 76.4813 54.162 76.4813H83.0448C85.7254 76.4813 87.8984 74.3083 87.8984 71.6277V47.5252C87.8984 32.9012 85.8987 22.5193 82.0106 16.2497C78.4654 10.8419 72.811 5.95391 64.9931 1.60611C62.9947 0.494729 60.4782 1.09165 59.0723 2.95347L53.4313 10.424C51.6381 12.7988 52.3937 16.2398 54.9847 17.8405C59.6801 20.7412 62.8074 23.4087 64.2083 25.8602ZM39.5931 47.5252C39.5931 32.8956 37.5918 22.5114 33.7008 16.2425C30.3442 10.8347 24.7097 5.94046 16.7289 1.58452C14.715 0.485337 12.1944 1.11209 10.8081 2.99899L5.30009 10.496C3.5668 12.8552 4.31068 16.2253 6.84159 17.8287C11.4267 20.7334 14.4944 23.4023 15.8974 25.8505C16.9201 27.5151 17.6543 29.4151 18.1073 31.5422C18.8603 35.0775 15.8066 37.8912 12.4191 37.8912H6.18978C3.5092 37.8912 1.33616 40.0643 1.33616 42.7448V71.6277C1.33616 74.3082 3.50921 76.4813 6.18978 76.4813H34.7395C37.4201 76.4813 39.5931 74.3083 39.5931 71.6277V47.5252Z" stroke="url(#paint1_linear_16_2148)" stroke-width="1.38675"/>
<defs>
<filter id="filter0_i_16_2148" x="0.642822" y="0.349365" width="87.949" height="90.6927" filterUnits="userSpaceOnUse" color-interpolation-filters="sRGB">
<feFlood flood-opacity="0" result="BackgroundImageFix"/>
<feBlend mode="normal" in="SourceGraphic" in2="BackgroundImageFix" result="shape"/>
<feColorMatrix in="SourceAlpha" type="matrix" values="0 0 0 0 0 0 0 0 0 0 0 0 0 0 0 0 0 0 127 0" result="hardAlpha"/>
<feMorphology radius="27.735" operator="erode" in="SourceAlpha" result="effect1_innerShadow_16_2148"/>
<feOffset dy="13.8675"/>
<feGaussianBlur stdDeviation="13.8675"/>
<feComposite in2="hardAlpha" operator="arithmetic" k2="-1" k3="1"/>
<feColorMatrix type="matrix" values="0 0 0 0 0 0 0 0 0 0 0 0 0 0 0 0 0 0 0.1 0"/>
<feBlend mode="normal" in2="shape" result="effect1_innerShadow_16_2148"/>
</filter>
<linearGradient id="paint0_linear_16_2148" x1="25.0274" y1="49.2797" x2="37.342" y2="-0.889746" gradientUnits="userSpaceOnUse">
<stop stop-color="#371236"/>
<stop offset="1" stop-color="#422741"/>
</linearGradient>
<linearGradient id="paint1_linear_16_2148" x1="118.521" y1="-33.7843" x2="91.439" y2="63.8457" gradientUnits="userSpaceOnUse">
<stop stop-color="#F955A3"/>
<stop offset="1" stop-color="white" stop-opacity="0"/>
</linearGradient>
</defs>
</svg>